<svg xmlns="http://www.w3.org/2000/svg" viewBox="0 0 220 100" width="100%" height="100%">
  <defs>
    <linearGradient id="goldGradient" x1="0%" y1="0%" x2="100%" y2="100%">
      <stop offset="0%" stop-color="#C89B3C" />
      <stop offset="30%" stop-color="#E5C173" />
      <stop offset="50%" stop-color="#F2DF9D" />
      <stop offset="70%" stop-color="#E5C173" />
      <stop offset="100%" stop-color="#AA802C" />
    </linearGradient>
  </defs>
  
  <!-- Pixel Perfect vector paths for VP letters with elegant readable spacing -->
  <g transform="translate(5, 8)">
    <!-- Letter 'V' -->
    <path fill="url(#goldGradient)" d="M74.70 14.10Q74.70 17.90 73.25 23.45Q71.80 29 69.45 35.55Q67.10 42.10 64.50 48.90Q61.90 55.70 59.55 62.05Q57.20 68.40 55.75 73.55Q54.30 78.70 54.30 81.80Q54.30 86.50 57.40 86.50Q60.40 86.50 64.70 83.75Q69 81 73.85 76.35Q78.70 71.70 83.40 65.75Q88.10 59.80 91.95 53.40Q95.80 47 98.10 40.75Q100.40 34.50 100.40 29.30Q100.40 25.80 99.45 23Q98.50 20.20 95.50 20.20Q94.20 20.20 93.45 19.65Q92.70 19.10 92.70 18.60Q92.70 17.60 94.40 17.60Q95.60 17.60 97.45 18.45Q99.30 19.30 101.15 21.05Q103 22.80 104.30 25.50Q105.60 28.20 105.60 31.90Q105.60 36.50 103.15 42.55Q100.70 48.60 96.55 55.05Q92.40 61.50 87.15 67.65Q81.90 73.80 76.20 78.75Q70.50 83.70 65.05 86.65Q59.60 89.60 55 89.60Q51.10 89.60 49.80 87.20Q48.50 84.80 48.50 80.90Q48.50 74.80 50.55 67.60Q52.60 60.40 55.65 52.65Q58.70 44.90 61.75 37.20Q64.80 29.50 66.85 22.40Q68.90 15.30 68.90 9.30Q68.90 2.50 65.05 0.10Q61.20-2.30 55-2.30Q48.90-2.30 42.05 0Q35.20 2.30 28.65 6.50Q22.10 10.70 16.80 16.55Q11.50 22.40 8.35 29.55Q5.20 36.70 5.20 44.90Q5.20 49.70 6.85 53.85Q8.50 58 12.20 60.55Q15.90 63.10 21.90 63.10Q26.40 63.10 30.55 61.20Q34.70 59.30 37.90 56.05Q41.10 52.80 43 48.80Q44.90 44.80 44.90 40.60Q44.90 37.20 43.50 34.65Q42.10 32.10 38.80 32.10Q37.50 32.10 36.10 32.50Q34.70 32.90 34.20 32.90Q33.70 32.90 33.70 32.30Q33.70 32.10 33.90 31.80Q34.10 31.50 34.60 31.20Q35.70 30.60 37.30 30.25Q38.90 29.90 40.10 29.90Q44.50 29.90 46.90 33Q49.30 36.10 49.30 40.50Q49.30 45.30 46.80 49.80Q44.30 54.30 40.15 57.90Q36 61.50 30.85 63.60Q25.70 65.70 20.30 65.70Q13.60 65.70 8.95 62.40Q4.30 59.10 1.95 53.75Q-0.40 48.40-0.40 42.30Q-0.40 34.40 2.75 27.25Q5.90 20.10 11.40 14.25Q16.90 8.40 23.90 4.10Q30.90-0.20 38.65-2.55Q46.40-4.90 54.10-4.90Q59.90-4.90 64.55-3Q69.20-1.10 71.95 3.05Q74.70 7.20 74.70 14.10" />
    
    <!-- Letter 'P' -->
    <path fill="url(#goldGradient)" d="M84.90 83.90Q82.70 83.90 80.60 83.60Q74.30 82.80 71.35 79.90Q68.40 77 68.40 73.60Q68.40 69.90 71.75 66.90Q75.10 63.90 81.20 63.90Q83.10 63.90 85.25 64.25Q87.40 64.60 89.80 65.40Q91 65.80 91 66.50Q91 66.90 90.40 66.90Q89.80 66.90 89.40 66.70Q87.80 66.10 86.35 65.85Q84.90 65.60 83.60 65.60Q79.30 65.60 77.05 68.05Q74.80 70.50 74.80 73.40Q74.80 76.20 77.10 78.50Q79.40 80.80 84.40 80.80Q90.70 80.80 96.05 77.90Q101.40 75 106.20 70.30Q111.30 65.30 115.50 58.25Q119.70 51.20 123.85 43.15Q128 35.10 132.90 26.90Q137.80 18.70 144.20 11.50Q145.50 10.10 146.85 8.55Q148.20 7 149.50 5.90Q146.10 5.40 142.50 5.15Q138.90 4.90 135.40 4.90Q130.20 4.90 125.55 5.35Q120.90 5.80 116.30 6.60Q111.60 7.50 105.80 9.40Q100 11.30 94.55 14.35Q89.10 17.40 85.25 21.70Q81.40 26 80.50 31.60Q80.40 32.10 80.35 32.65Q80.30 33.20 80.30 33.70Q80.30 38.30 83.45 41.30Q86.60 44.30 90.80 44.30Q93.90 44.30 96.80 42.65Q99.70 41 102 38.25Q104.30 35.50 105.40 32.20Q105.50 31.20 106.20 31.20Q106.80 31.20 106.80 32.30Q106.70 36.70 104.25 39.90Q101.80 43.10 98.10 44.75Q94.40 46.40 90.60 46.40Q86.70 46.40 83.20 44.75Q79.70 43.10 77.50 39.85Q75.30 36.60 75.30 31.80Q75.30 26.20 78.05 21.90Q80.80 17.60 85.40 14.35Q90 11.10 95.40 8.85Q100.80 6.60 106.20 5.25Q111.60 3.90 116 3.20Q120.50 2.50 125.35 2.10Q130.20 1.70 135.20 1.70Q139.50 1.70 143.80 2.10Q148.10 2.50 152.20 3.30Q153.90 2 155.70 1Q157.50 0 159.70-0.80Q161.10-1.40 161.80-1.40Q162.40-1.40 162.40-1Q162.40-0.30 160.80 0.70Q160 1.10 158.80 2.10Q157.60 3.10 156.20 4.40Q162.70 6 167.90 9.20Q173.60 12.60 176.05 16.40Q178.50 20.20 178.50 24.20Q178.50 28.80 175.70 33.35Q172.90 37.90 168.40 41.80Q163.90 45.70 158.50 48.55Q153.10 51.40 147.80 52.70Q142.70 54 137.50 54.60Q132.30 55.20 128.20 55.20Q127.50 55.20 126.75 55.20Q126 55.20 125.30 55.10Q121.90 59.90 118.30 64.45Q114.70 69 110.20 73.30Q104.70 78.50 98.20 81.20Q91.70 83.90 84.90 83.90M126.70 52.90Q130.50 53 135.20 52.30Q139.90 51.60 144.60 50.20Q152.40 47.80 158.65 43.30Q164.90 38.80 168.55 33.30Q172.20 27.80 172.20 22.50Q172.20 19.30 170.65 16.40Q169.10 13.50 165.60 11.20Q163.30 9.70 160.40 8.60Q157.50 7.50 154.30 6.80Q149.20 14 144.75 21.80Q140.30 29.60 135.95 37.50Q131.60 45.40 126.70 52.90" />
  </g>
</svg>
