<svg xmlns="http://www.w3.org/2000/svg" viewBox="0 0 240 100" width="100%" height="100%">
  <defs>
    <linearGradient id="goldGradient" x1="0%" y1="0%" x2="100%" y2="100%">
      <stop offset="0%" stop-color="#C89B3C" />
      <stop offset="30%" stop-color="#E5C173" />
      <stop offset="50%" stop-color="#F2DF9D" />
      <stop offset="70%" stop-color="#E5C173" />
      <stop offset="100%" stop-color="#AA802C" />
    </linearGradient>
  </defs>
  
  <!-- Pixel Perfect vector paths for VP letters with spacious, readable spacing -->
  <g transform="translate(5, 8)">
    <!-- Letter 'V' -->
    <path fill="url(#goldGradient)" d="M74.70 14.10Q74.70 17.90 73.25 23.45Q71.80 29 69.45 35.55Q67.10 42.10 64.50 48.90Q61.90 55.70 59.55 62.05Q57.20 68.40 55.75 73.55Q54.30 78.70 54.30 81.80Q54.30 86.50 57.40 86.50Q60.40 86.50 64.70 83.75Q69 81 73.85 76.35Q78.70 71.70 83.40 65.75Q88.10 59.80 91.95 53.40Q95.80 47 98.10 40.75Q100.40 34.50 100.40 29.30Q100.40 25.80 99.45 23Q98.50 20.20 95.50 20.20Q94.20 20.20 93.45 19.65Q92.70 19.10 92.70 18.60Q92.70 17.60 94.40 17.60Q95.60 17.60 97.45 18.45Q99.30 19.30 101.15 21.05Q103 22.80 104.30 25.50Q105.60 28.20 105.60 31.90Q105.60 36.50 103.15 42.55Q100.70 48.60 96.55 55.05Q92.40 61.50 87.15 67.65Q81.90 73.80 76.20 78.75Q70.50 83.70 65.05 86.65Q59.60 89.60 55 89.60Q51.10 89.60 49.80 87.20Q48.50 84.80 48.50 80.90Q48.50 74.80 50.55 67.60Q52.60 60.40 55.65 52.65Q58.70 44.90 61.75 37.20Q64.80 29.50 66.85 22.40Q68.90 15.30 68.90 9.30Q68.90 2.50 65.05 0.10Q61.20-2.30 55-2.30Q48.90-2.30 42.05 0Q35.20 2.30 28.65 6.50Q22.10 10.70 16.80 16.55Q11.50 22.40 8.35 29.55Q5.20 36.70 5.20 44.90Q5.20 49.70 6.85 53.85Q8.50 58 12.20 60.55Q15.90 63.10 21.90 63.10Q26.40 63.10 30.55 61.20Q34.70 59.30 37.90 56.05Q41.10 52.80 43 48.80Q44.90 44.80 44.90 40.60Q44.90 37.20 43.50 34.65Q42.10 32.10 38.80 32.10Q37.50 32.10 36.10 32.50Q34.70 32.90 34.20 32.90Q33.70 32.90 33.70 32.30Q33.70 32.10 33.90 31.80Q34.10 31.50 34.60 31.20Q35.70 30.60 37.30 30.25Q38.90 29.90 40.10 29.90Q44.50 29.90 46.90 33Q49.30 36.10 49.30 40.50Q49.30 45.30 46.80 49.80Q44.30 54.30 40.15 57.90Q36 61.50 30.85 63.60Q25.70 65.70 20.30 65.70Q13.60 65.70 8.95 62.40Q4.30 59.10 1.95 53.75Q-0.40 48.40-0.40 42.30Q-0.40 34.40 2.75 27.25Q5.90 20.10 11.40 14.25Q16.90 8.40 23.90 4.10Q30.90-0.20 38.65-2.55Q46.40-4.90 54.10-4.90Q59.90-4.90 64.55-3Q69.20-1.10 71.95 3.05Q74.70 7.20 74.70 14.10" />
    
    <!-- Letter 'P' -->
    <path fill="url(#goldGradient)" d="M104.90 83.90Q102.70 83.90 100.60 83.60Q94.30 82.80 91.35 79.90Q88.40 77 88.40 73.60Q88.40 69.90 91.75 66.90Q95.10 63.90 101.20 63.90Q103.10 63.90 105.25 64.25Q107.40 64.60 109.80 65.40Q111 65.80 111 66.50Q111 66.90 110.40 66.90Q109.80 66.90 109.40 66.70Q107.80 66.10 106.35 65.85Q104.90 65.60 103.60 65.60Q99.30 65.60 97.05 68.05Q94.80 70.50 94.80 73.40Q94.80 76.20 97.10 78.50Q99.40 80.80 104.40 80.80Q110.70 80.80 116.05 77.90Q121.40 75 126.20 70.30Q131.30 65.30 135.50 58.25Q139.70 51.20 143.85 43.15Q148 35.10 152.90 26.90Q157.80 18.70 164.20 11.50Q165.50 10.10 166.85 8.55Q168.20 7 169.50 5.90Q166.10 5.40 162.50 5.15Q158.90 4.90 155.40 4.90Q150.20 4.90 145.55 5.35Q140.90 5.80 136.30 6.60Q131.60 7.50 125.80 9.40Q120 11.30 114.55 14.35Q109.10 17.40 105.25 21.70Q101.40 26 100.50 31.60Q100.40 32.10 100.35 32.65Q100.30 33.20 100.30 33.70Q100.30 38.30 103.45 41.30Q106.60 44.30 110.80 44.30Q113.90 44.30 116.80 42.65Q119.70 41 122 38.25Q124.30 35.50 125.40 32.20Q125.50 31.20 126.20 31.20Q126.80 31.20 126.80 32.30Q126.70 36.70 124.25 39.90Q121.80 43.10 118.10 44.75Q114.40 46.40 110.60 46.40Q106.70 46.40 103.20 44.75Q99.70 43.10 97.50 39.85Q99.70 43.10 97.50 39.85Q95.30 36.60 95.30 31.80Q95.30 26.20 98.05 21.90Q100.80 17.60 105.40 14.35Q110 11.10 115.40 8.85Q120.80 6.60 126.20 5.25Q131.60 3.90 136 3.20Q140.50 2.50 145.35 2.10Q150.20 1.70 155.20 1.70Q159.50 1.70 163.80 2.10Q168.10 2.50 172.20 3.30Q173.90 2 175.70 1Q177.50 0 179.70-0.80Q181.10-1.40 181.80-1.40Q182.40-1.40 182.40-1Q182.40-0.30 180.80 0.70Q180 1.10 178.80 2.10Q177.60 3.10 176.20 4.40Q182.70 6 187.90 9.20Q193.60 12.60 196.05 16.40Q198.50 20.20 198.50 24.20Q198.50 28.80 195.70 33.35Q192.90 37.90 188.40 41.80Q183.90 45.70 178.50 48.55Q173.10 51.40 167.80 52.70Q162.70 54 157.50 54.60Q152.30 55.20 148.20 55.20Q147.50 55.20 146.75 55.20Q146 55.20 145.30 55.10Q141.90 59.90 138.30 64.45Q134.70 69 130.20 73.30Q124.70 78.50 118.20 81.20Q111.70 83.90 104.90 83.90M146.70 52.90Q150.50 53 155.20 52.30Q159.90 51.60 164.60 50.20Q172.40 47.80 178.65 43.30Q184.90 38.80 188.55 33.30Q192.20 27.80 192.20 22.50Q192.20 19.30 190.65 16.40Q189.10 13.50 185.60 11.20Q183.30 9.70 180.40 8.60Q177.50 7.50 174.30 6.80Q169.20 14 164.75 21.80Q160.30 29.60 155.95 37.50Q151.60 45.40 146.70 52.90" />
  </g>
</svg>
